<svg width="66" height="66" viewBox="0 0 66 66" fill="none" xmlns="http://www.w3.org/2000/svg">
<g clip-path="url(#clip0_104_26)">
<path d="M65.8543 31.8657C65.8543 27.5312 60.4265 23.4229 52.1037 20.8767C54.0256 12.3957 53.1723 5.64582 49.4102 3.484C48.4987 2.97345 47.4669 2.71646 46.4224 2.73977V5.71125C47.0358 5.71125 47.5292 5.83392 47.9436 6.06019C49.7565 7.10158 50.5443 11.0599 49.9309 16.1551C49.7837 17.4091 49.5438 18.7285 49.2494 20.0752C46.4623 19.4036 43.6336 18.9182 40.782 18.6222C39.0833 16.2785 37.2299 14.0509 35.2344 11.9541C39.5825 7.91396 43.6636 5.70034 46.4388 5.70034V2.72614C42.7694 2.72614 37.9687 5.34049 33.1134 9.87405C28.2609 5.37048 23.4575 2.78066 19.7908 2.78066V5.75214C22.5524 5.75214 26.6471 7.95485 30.9952 11.9677C29.1278 13.9305 27.2604 16.1551 25.4857 18.6222C22.6283 18.9149 19.7945 19.405 17.0047 20.0889C16.7099 18.8125 16.4779 17.5224 16.3096 16.2232C15.6826 11.1253 16.4568 7.167 18.2587 6.11472C18.6568 5.87482 19.1775 5.76577 19.7908 5.76577V2.79429C18.6731 2.79429 17.6563 3.03419 16.7785 3.53852C13.03 5.70034 12.1904 12.4339 14.1232 20.8903C5.82759 23.4529 0.427124 27.5448 0.427124 31.8657C0.427124 36.2003 5.85485 40.3086 14.1777 42.8521C12.2558 51.3358 13.1091 58.0857 16.8711 60.2448C17.7381 60.7518 18.7522 60.9917 19.8699 60.9917C23.5393 60.9917 28.34 58.3774 33.1952 53.8438C38.0477 58.3501 42.8484 60.9372 46.5178 60.9372C47.5704 60.9594 48.61 60.7017 49.5302 60.1902C53.2786 58.0312 54.1183 51.2976 52.1854 42.8411C60.4538 40.2949 65.8543 36.1867 65.8543 31.8657ZM48.4888 22.9704C47.9708 24.7529 47.3704 26.5104 46.6896 28.2373C45.575 26.0693 44.3512 23.9593 43.0229 21.9154C44.9176 22.1962 46.7441 22.5424 48.4915 22.9704H48.4888ZM42.3823 37.1735C41.3838 38.9168 40.3114 40.6167 39.1682 42.2687C35.1669 42.6213 31.1425 42.6259 27.1405 42.2823C24.8449 39.0033 22.8374 35.5318 21.1403 31.9066C22.8348 28.273 24.8338 24.7893 27.1159 21.4928C31.1162 21.1394 35.1397 21.134 39.1409 21.4765C40.2477 23.0631 41.33 24.7587 42.3686 26.5471C43.3828 28.2918 44.3042 30.0638 45.1438 31.8521C44.2949 33.6621 43.3736 35.4374 42.3823 37.1735ZM46.6896 35.4397C47.4093 37.2253 48.0254 39.0137 48.5297 40.7475C46.785 41.1755 44.9421 41.5353 43.0365 41.8134C44.3594 39.7509 45.5786 37.6237 46.6896 35.4397ZM33.168 49.6701C31.9276 48.3888 30.6872 46.9631 29.4604 45.401C30.6599 45.4555 31.8867 45.4964 33.1271 45.4964C34.3811 45.4964 35.6215 45.4691 36.8346 45.401C35.6351 46.9631 34.3947 48.3888 33.168 49.6701ZM23.2448 41.8134C21.4067 41.5471 19.5819 41.1959 17.7762 40.7611C18.2696 39.0409 18.883 37.2662 19.5755 35.4942C20.1234 36.5574 20.6986 37.6261 21.3256 38.6947C21.9527 39.7606 22.5906 40.802 23.2448 41.8134ZM33.0998 14.0614C34.3402 15.3427 35.5806 16.7684 36.8073 18.3305C35.6078 18.276 34.3811 18.2351 33.1407 18.2351C31.8867 18.2351 30.6463 18.2624 29.4332 18.3305C30.6327 16.7684 31.873 15.3427 33.0998 14.0614ZM23.2312 21.9181C21.9087 23.9761 20.6895 26.0988 19.5782 28.2782C18.8782 26.5401 18.264 24.7687 17.7381 22.9704C19.4828 22.556 21.3256 22.1962 23.2312 21.9181ZM11.1626 38.6129C6.44097 36.601 3.3877 33.9594 3.3877 31.8657C3.3877 29.7721 6.44097 27.1168 11.1626 25.1186C12.3076 24.6251 13.5616 24.1835 14.8565 23.7719C15.6171 26.3835 16.6176 29.1042 17.8553 31.893C16.6868 34.516 15.6985 37.2157 14.8974 39.9733C13.631 39.5811 12.3846 39.1271 11.1626 38.6129ZM18.3378 57.6686C16.5249 56.6326 15.7371 52.6688 16.3505 47.5764C16.4977 46.3224 16.7376 45.0002 17.032 43.6535C19.6436 44.2942 22.4979 44.7876 25.4993 45.1093C27.1982 47.4529 29.0516 49.6806 31.047 51.7774C26.6988 55.8175 22.6178 58.0312 19.8426 58.0312C19.319 58.0369 18.8022 57.9133 18.3378 57.6713V57.6686ZM49.9718 47.5083C50.5988 52.6034 49.8246 56.5645 48.0226 57.6168C47.6246 57.8567 47.1039 57.963 46.4906 57.963C43.729 57.963 39.6343 55.763 35.2862 51.7474C37.2733 49.6594 39.1142 47.4369 40.7957 45.0957C43.6531 44.803 46.4869 44.3129 49.2767 43.629C49.5847 44.9757 49.8219 46.2679 49.9718 47.5083ZM55.1051 38.6129C53.9602 39.1063 52.7061 39.548 51.4112 39.9596C50.596 37.188 49.5942 34.4748 48.4125 31.8385C49.6392 29.066 50.6234 26.359 51.3703 23.7582C52.6408 24.1517 53.8917 24.6056 55.1188 25.1186C59.8404 27.1305 62.8937 29.7721 62.8937 31.8657C62.8801 33.9594 59.8268 36.6147 55.1051 38.6129Z" fill="#3B82F6"/>
<path d="M33.1271 37.9614C34.7437 37.9614 36.2942 37.3192 37.4373 36.176C38.5805 35.0329 39.2227 33.4824 39.2227 31.8658C39.2227 30.2491 38.5805 28.6987 37.4373 27.5555C36.2942 26.4124 34.7437 25.7701 33.1271 25.7701C31.5104 25.7701 29.96 26.4124 28.8168 27.5555C27.6736 28.6987 27.0314 30.2491 27.0314 31.8658C27.0314 33.4824 27.6736 35.0329 28.8168 36.176C29.96 37.3192 31.5104 37.9614 33.1271 37.9614Z" fill="#3B82F6"/>
</g>
<defs>
<clipPath id="clip0_104_26">
<rect width="65.4271" height="65.4271" fill="white" transform="translate(0.427124)"/>
</clipPath>
</defs>
</svg>
