<?xml version="1.0" encoding="UTF-8" standalone="no"?>
<!-- Created with Inkscape (http://www.inkscape.org/) -->

<svg
   width="39.075691mm"
   height="7.8989229mm"
   viewBox="0 0 39.075691 7.8989229"
   version="1.1"
   id="svg5"
   inkscape:export-filename="recloud.svg"
   inkscape:export-xdpi="96"
   inkscape:export-ydpi="96"
   inkscape:version="1.2.1 (9c6d41e410, 2022-07-14)"
   sodipodi:docname="recloud.svg"
   xmlns:inkscape="http://www.inkscape.org/namespaces/inkscape"
   xmlns:sodipodi="http://sodipodi.sourceforge.net/DTD/sodipodi-0.dtd"
   xmlns="http://www.w3.org/2000/svg"
   xmlns:svg="http://www.w3.org/2000/svg">
  <sodipodi:namedview
     id="namedview7"
     pagecolor="#ffffff"
     bordercolor="#000000"
     borderopacity="0.25"
     inkscape:showpageshadow="2"
     inkscape:pageopacity="0.0"
     inkscape:pagecheckerboard="0"
     inkscape:deskcolor="#d1d1d1"
     inkscape:document-units="mm"
     showgrid="false"
     inkscape:zoom="1.5862247"
     inkscape:cx="-453.59273"
     inkscape:cy="-83.846884"
     inkscape:window-width="2560"
     inkscape:window-height="1566"
     inkscape:window-x="-11"
     inkscape:window-y="-11"
     inkscape:window-maximized="1"
     inkscape:current-layer="text120" />
  <defs
     id="defs2" />
  <g
     inkscape:label="图层 1"
     inkscape:groupmode="layer"
     id="layer1"
     transform="translate(-71.574424,-85.391853)">
    <g
       aria-label="reCloud"
       id="text120"
       style="font-size:11.2889px;stroke-width:0.264583">
      <path
         d="m 74.953377,87.927446 q 0,0.606338 -0.08268,1.102432 -0.01654,0.12678 -0.110243,0.12678 -0.115755,0 -0.352778,-0.02205 -0.231511,-0.02756 -0.352778,-0.02756 -0.694532,0 -0.887457,0.391363 -0.115756,0.237023 -0.115756,0.986677 v 0.606337 q 0,0.308681 0.02205,0.937067 0.02756,0.628386 0.02756,0.937067 0,0.148828 -0.12678,0.148828 -0.170877,0 -0.518143,-0.0055 -0.347266,-0.0055 -0.518143,-0.0055 -0.126779,0 -0.126779,-0.137804 0,-0.446485 0.01102,-1.344967 0.01654,-0.898481 0.01654,-1.350478 0,-1.361503 -0.253559,-2.188327 -0.01102,-0.0441 -0.01102,-0.06615 0,-0.06615 0.07166,-0.09371 0.20395,-0.02205 0.573264,-0.06615 0.595313,-0.110243 0.551216,-0.110243 0.08819,0 0.115755,0.325217 0.02756,0.325218 0.09922,0.325218 0.01103,0 0.02756,-0.01102 0.225999,-0.143316 0.451997,-0.286632 0.248047,-0.148828 0.507119,-0.220486 0.214974,-0.06615 0.551215,-0.06615 0.429949,0 0.429949,0.115755 z"
         style="font-family:'Berlin Sans FB';-inkscape-font-specification:'Berlin Sans FB'"
         id="path174" />
      <path
         d="m 80.228513,90.143334 q 0,0.4079 -0.352779,0.545704 -0.237022,0.08819 -3.412026,0.325217 0.07166,0.48507 0.53468,0.826824 0.440972,0.325217 0.948091,0.325217 0.870921,0 1.598526,-0.56224 0.08819,-0.07166 0.176389,-0.143316 0.0441,0 0.05512,0.01102 0.01654,0.01102 0.209462,0.385851 0.192925,0.369315 0.192925,0.396876 0,0.03307 -0.08819,0.126779 -0.810288,0.859897 -2.078084,0.859897 -1.278821,0 -2.039499,-0.760678 -0.760678,-0.76619 -0.760678,-2.039498 0,-1.135505 0.727605,-1.978865 0.76619,-0.876434 1.879646,-0.876434 1.036286,0 1.730818,0.760678 0.677996,0.73863 0.677996,1.796964 z m -1.311894,-0.336242 q 0,-0.457509 -0.363803,-0.810287 -0.35829,-0.352778 -0.810287,-0.352778 -0.507119,0 -0.903994,0.4079 -0.391363,0.407899 -0.391363,0.915018 0,0.115755 0.198438,0.115755 0.815799,0 1.951304,-0.165365 0.319705,-0.0441 0.319705,-0.110243 z"
         style="font-family:'Berlin Sans FB';-inkscape-font-specification:'Berlin Sans FB'"
         id="path176" />
      <path
         d="m 86.280863,89.426753 2.342667,0.06063 q -0.231511,1.819012 -1.262284,2.811201 -1.025262,0.992188 -2.678909,0.992188 -1.681208,0 -2.816713,-1.12448 -1.129993,-1.129992 -1.129993,-2.800176 0,-1.681209 1.152042,-2.827738 1.157553,-1.146529 2.849785,-1.146529 1.664672,0 2.778128,1.124481 0.771702,0.777214 1.091408,2.166278 l -2.397789,0.159853 q -0.402388,-1.234724 -1.526868,-1.234724 -0.716581,0 -1.185114,0.496094 -0.463021,0.496095 -0.463021,1.262285 0,0.738629 0.457509,1.223699 0.457509,0.479558 1.157553,0.479558 0.711068,0 1.129992,-0.424437 0.424437,-0.424436 0.501607,-1.218187 z"
         style="font-family:'Bauhaus 93';-inkscape-font-specification:'Bauhaus 93, '"
         id="path178" />
      <path
         d="m 91.589071,85.579267 v 7.524096 h -2.061547 v -7.524096 z"
         style="font-family:'Bauhaus 93';-inkscape-font-specification:'Bauhaus 93, '"
         id="path180" />
      <path
         d="m 95.403484,87.491986 q 1.168578,0 2.000914,0.84336 0.837848,0.837848 0.837848,2.011938 0,1.190626 -0.848873,2.028474 -0.84336,0.837848 -2.039498,0.837848 -1.196139,0 -2.045011,-0.837848 -0.848873,-0.84336 -0.848873,-2.028474 0,-1.207163 0.848873,-2.028474 0.848872,-0.826824 2.09462,-0.826824 z m -0.05512,2.033986 q -0.330729,0 -0.56224,0.242535 -0.23151,0.237023 -0.23151,0.584289 0,0.341754 0.23151,0.584289 0.237023,0.242535 0.56224,0.242535 0.33073,0 0.562241,-0.242535 0.237022,-0.242535 0.237022,-0.584289 0,-0.347266 -0.23151,-0.584289 -0.231511,-0.242535 -0.567753,-0.242535 z"
         style="font-family:'Bauhaus 93';-inkscape-font-specification:'Bauhaus 93, '"
         id="path182" />
      <path
         d="m 99.102143,87.684911 h 2.061547 v 3.103346 q 0,0.468533 0.39136,0.468533 0.38585,0 0.38585,-0.468533 v -3.103346 h 2.06155 v 3.06476 q 0,1.069359 -0.71107,1.807988 -0.71106,0.733117 -1.74184,0.733117 -1.17409,0 -1.890669,-0.854384 -0.556728,-0.666971 -0.556728,-1.852085 z"
         style="font-family:'Bauhaus 93';-inkscape-font-specification:'Bauhaus 93, '"
         id="path184" />
      <path
         d="m 108.58857,85.579267 h 2.06154 v 4.580603 q 0,1.262285 -0.66146,2.056036 -0.38033,0.457509 -0.97014,0.727604 -0.58428,0.270096 -1.20165,0.270096 -1.22921,0 -2.07257,-0.826824 -0.84336,-0.826823 -0.84336,-2.028474 0,-1.163065 0.83785,-2.011938 0.83785,-0.848872 1.98438,-0.848872 0.1819,0 0.55121,0.03307 v 2.271009 q -0.25356,-0.198438 -0.50712,-0.198438 -0.3197,0 -0.55121,0.237023 -0.226,0.231511 -0.226,0.56224 0,0.319706 0.23702,0.551216 0.23703,0.225999 0.56776,0.225999 0.79375,0 0.79375,-1.09692 z"
         style="font-family:'Bauhaus 93';-inkscape-font-specification:'Bauhaus 93, '"
         id="path186" />
    </g>
  </g>
</svg>
