<svg width="77" height="77" viewBox="0 0 77 77" fill="none" xmlns="http://www.w3.org/2000/svg">
<path d="M59.1961 30.2854C56.8079 29.4629 54.6998 27.9839 53.1136 26.0181C51.3654 23.8278 49.1394 22.0664 46.6059 20.8687C44.0724 19.6709 41.2985 19.0685 38.4964 19.1075C34.727 18.8406 30.9953 20.0032 28.0446 22.3638C25.0938 24.7244 23.1404 28.1098 22.5734 31.8459C23.6902 29.9773 25.371 28.5112 27.3739 27.6585C29.3768 26.8058 31.5986 26.6106 33.7195 27.1008C36.1038 27.9473 38.2084 29.4349 39.802 31.4C41.5598 33.5728 43.79 35.316 46.323 36.4969C48.856 37.6779 51.625 38.2655 54.4193 38.215C58.1886 38.482 61.9203 37.3194 64.871 34.9588C67.8218 32.5982 69.7752 29.2127 70.3422 25.4767C69.2457 27.3676 67.5703 28.8559 65.5633 29.7217C63.5563 30.5876 61.3241 30.7852 59.1961 30.2854ZM17.7966 46.1446C20.1848 46.9672 22.2929 48.4462 23.8791 50.412C25.6273 52.6022 27.8533 54.3636 30.3868 55.5614C32.9203 56.7591 35.6942 57.3616 38.4964 57.3225C42.2657 57.5895 45.9974 56.4269 48.9481 54.0663C51.8989 51.7057 53.8523 48.3202 54.4193 44.5842C53.3025 46.4528 51.6218 47.9189 49.6189 48.7715C47.6159 49.6242 45.3942 49.8195 43.2732 49.3292C40.889 48.4827 38.7843 46.9951 37.1907 45.03C35.4282 42.8627 33.1971 41.1233 30.6652 39.9429C28.1333 38.7624 25.3666 38.1717 22.5734 38.215C18.8041 37.9481 15.0724 39.1107 12.1217 41.4713C9.1709 43.8319 7.21753 47.2173 6.65054 50.9534C7.74701 49.0624 9.42242 47.5742 11.4294 46.7083C13.4364 45.8424 15.6687 45.6448 17.7966 46.1446Z" fill="#3B82F6"/>
</svg>
