<svg width="67" height="66" viewBox="0 0 67 66" fill="none" xmlns="http://www.w3.org/2000/svg">
<g clip-path="url(#clip0_104_31)">
<path d="M0.854248 32.7136V65.4271H66.2814V0H0.854248V32.7136ZM53.5763 30.1047C55.1447 30.474 56.5702 31.2958 57.6757 32.4682C58.2727 33.1061 59.1662 34.2777 59.2418 34.566C59.2623 34.6518 56.4203 36.5574 54.6946 37.6226C54.6313 37.6656 54.3757 37.3998 54.0976 36.9827C53.2573 35.758 52.372 35.2264 51.0205 35.1303C49.0393 35.0015 47.7614 36.036 47.7716 37.7719C47.7612 38.1967 47.8561 38.6174 48.0477 38.9966C48.4852 39.9024 49.3051 40.4442 51.8383 41.5421C56.5246 43.554 58.5262 44.8851 59.7714 46.7702C61.1658 48.8782 61.4745 52.2436 60.5381 54.7564C59.4954 57.4716 56.9171 59.324 53.2961 59.9313C52.1777 60.1337 49.5157 60.101 48.3114 59.8781C45.6821 59.4099 43.1897 58.1095 41.6562 56.4064C41.049 55.746 39.8774 54.0101 39.9531 53.8936C39.9858 53.8506 40.2516 53.6809 40.5501 53.5092L42.9791 52.1025L44.8642 51.0066L45.2588 51.5913C45.8129 52.4317 47.0151 53.5828 47.741 53.9651C49.8285 55.0733 52.693 54.9138 54.1099 53.6462C54.6844 53.1677 55.0054 52.4317 54.9625 51.6874C54.9625 50.9309 54.8664 50.5915 54.4718 50.0252C53.9606 49.3014 52.9281 48.6839 49.9778 47.4061C46.6021 45.9462 45.1423 45.0527 43.8235 43.6154C42.9933 42.6693 42.3793 41.5536 42.0243 40.3461C41.7789 39.4198 41.7155 37.0972 41.9077 36.171C42.6009 32.9017 45.0707 30.6342 48.6161 29.9636C49.7672 29.7407 52.4497 29.8246 53.5783 30.1026L53.5763 30.1047ZM38.2213 32.8424L38.2418 35.5147H29.7219V59.7207H23.6945V35.5147H15.1869V32.8955C15.1869 31.4357 15.2196 30.2232 15.2605 30.1905C15.2932 30.1476 20.4681 30.1272 26.7511 30.1374L38.1886 30.1701L38.2213 32.8424Z" fill="#3B82F6"/>
</g>
<defs>
<clipPath id="clip0_104_31">
<rect width="65.4271" height="65.4271" fill="white" transform="translate(0.854248)"/>
</clipPath>
</defs>
</svg>
