<svg width="66" height="66" viewBox="0 0 66 66" fill="none" xmlns="http://www.w3.org/2000/svg">
<path d="M63.3605 7.47601L45.5654 10.7195L48.6576 0L23.9631 4.83879L23.5784 11.3353L1.94303 7.46819C0.452964 7.38146 -0.415293 8.45152 0.199979 9.93723L31.5096 64.8425C32.1835 65.9426 33.735 65.9856 34.4153 64.8425L65.1161 9.93197C65.8089 8.69065 64.7474 7.2356 63.3605 7.47601ZM32.9561 63.3373L2.29262 9.56468L23.4593 13.348L22.4615 30.2007L31.1379 28.1983L28.7186 40.045L35.3093 38.0427L32.0386 53.8731C31.8757 54.9083 33.2241 55.459 33.8911 53.9773L53.1626 15.5174L43.6519 17.3529L44.9459 12.8677L63.023 9.57276L32.9561 63.3373Z" fill="#3B82F6"/>
</svg>
